<?xml version="1.0" standalone="no"?>
<!DOCTYPE svg PUBLIC "-//W3C//DTD SVG 20010904//EN"
 "http://www.w3.org/TR/2001/REC-SVG-20010904/DTD/svg10.dtd">
<svg version="1.0" xmlns="http://www.w3.org/2000/svg"
 width="355.000000pt" height="142.000000pt" viewBox="0 0 355.000000 142.000000"
 preserveAspectRatio="xMidYMid meet">

<g transform="translate(0.000000,142.000000) scale(0.100000,-0.100000)"
fill="#000000" stroke="none">
<path d="M1646 1329 c-21 -17 -26 -29 -26 -68 0 -57 8 -68 82 -114 61 -39 78
-69 58 -106 -23 -45 -100 -13 -100 41 0 13 -8 18 -26 18 -25 0 -26 -2 -21 -42
8 -56 36 -77 105 -78 70 0 102 29 102 92 0 56 -19 81 -86 119 -56 32 -77 67
-57 98 22 35 83 20 83 -20 0 -14 7 -19 29 -19 25 0 28 3 23 28 -2 15 -14 37
-25 50 -28 30 -103 31 -141 1z"/>
<path d="M2360 1286 l0 -54 -30 11 c-25 10 -34 8 -57 -9 -26 -19 -28 -28 -31
-95 -4 -103 4 -137 34 -151 19 -9 33 -9 55 -1 17 7 31 7 35 2 3 -5 14 -9 25
-9 18 0 19 8 19 180 l0 180 -25 0 c-24 0 -25 -3 -25 -54z m-2 -174 c-3 -83 -4
-87 -27 -90 -34 -5 -41 12 -41 100 0 63 3 79 17 87 11 6 24 6 36 0 15 -9 17
-22 15 -97z"/>
<path d="M2450 1315 c0 -20 5 -25 25 -25 20 0 25 5 25 25 0 20 -5 25 -25 25
-20 0 -25 -5 -25 -25z"/>
<path d="M1882 1240 c-12 -5 -27 -21 -32 -35 -13 -35 -13 -35 14 -35 15 0 27
7 31 19 8 27 31 33 50 14 21 -21 15 -57 -10 -61 -47 -7 -65 -13 -79 -28 -21
-21 -21 -97 0 -118 19 -19 65 -21 83 -3 11 10 14 10 18 0 3 -7 16 -13 29 -13
24 0 24 2 24 88 0 111 -13 160 -46 172 -30 12 -52 12 -82 0z m78 -158 c0 -63
-62 -87 -68 -27 -4 31 18 55 50 55 13 0 18 -8 18 -28z"/>
<path d="M2116 1243 c-3 -4 -23 -6 -44 -5 l-37 3 3 -131 3 -130 25 0 c24 0 24
0 24 110 0 95 2 111 18 119 38 20 47 -2 50 -119 4 -109 4 -110 28 -110 24 0
24 0 24 115 0 102 -2 117 -20 135 -20 20 -60 27 -74 13z"/>
<path d="M2570 1244 c-21 -9 -40 -35 -40 -56 0 -24 38 -24 47 0 16 43 66 30
61 -16 -2 -22 -9 -28 -40 -33 -55 -9 -78 -34 -78 -84 0 -63 47 -94 100 -65 13
7 21 7 25 0 3 -5 15 -10 26 -10 20 0 21 5 17 115 -2 87 -7 118 -19 130 -17 17
-75 28 -99 19z m70 -168 c0 -60 -62 -80 -68 -21 -4 31 18 55 50 55 14 0 18 -8
18 -34z"/>
<path d="M2450 1110 l0 -130 25 0 25 0 0 130 0 130 -25 0 -25 0 0 -130z"/>
<path d="M1610 713 l0 -183 25 0 24 0 3 136 3 137 36 -134 36 -134 41 -3 42
-3 0 184 0 184 -25 -5 -25 -4 -1 -132 0 -131 -30 100 c-16 55 -34 116 -39 135
-9 33 -12 35 -50 35 l-40 0 0 -182z"/>
<path d="M2860 714 l0 -184 25 0 25 0 0 179 0 179 -25 4 -25 5 0 -183z"/>
<path d="M2172 868 c2 -17 10 -23 28 -23 18 0 26 6 28 23 3 19 -1 22 -28 22
-27 0 -31 -3 -28 -22z"/>
<path d="M2078 849 c-10 -5 -18 -18 -18 -28 0 -11 -7 -21 -15 -25 -8 -3 -15
-12 -15 -21 0 -8 7 -15 15 -15 12 0 15 -17 15 -95 0 -105 14 -135 65 -135 18
0 25 5 25 20 0 11 -7 20 -15 20 -12 0 -15 17 -15 95 0 78 3 95 15 95 8 0 15 9
15 20 0 11 -7 20 -15 20 -10 0 -15 10 -15 30 0 31 -12 37 -42 19z"/>
<path d="M1880 780 c-29 -29 -26 -60 5 -60 18 0 25 5 25 20 0 11 7 23 15 26
21 8 45 -14 45 -41 0 -18 -8 -25 -45 -34 -57 -14 -80 -46 -72 -99 8 -46 32
-65 72 -57 17 3 45 5 63 5 l32 -1 0 109 c0 101 -2 110 -23 130 -30 29 -89 30
-117 2z m90 -153 c0 -36 -15 -57 -41 -57 -28 0 -40 55 -17 78 7 7 22 12 35 12
19 0 23 -5 23 -33z"/>
<path d="M2175 788 c-3 -8 -4 -68 -3 -134 l3 -119 25 0 25 0 0 130 c0 127 0
130 -23 133 -12 2 -24 -3 -27 -10z"/>
<path d="M2300 783 l-35 -18 -3 -85 c-4 -105 1 -124 33 -138 42 -19 83 -14
110 13 22 22 25 32 25 104 0 69 -3 83 -22 105 -31 34 -66 40 -108 19z m75 -46
c3 -12 5 -54 3 -92 -3 -68 -4 -70 -30 -73 -22 -3 -30 2 -38 23 -13 34 -13 106
0 139 13 34 57 36 65 3z"/>
<path d="M2460 663 l0 -133 25 0 c24 0 24 0 27 111 3 95 6 114 21 123 34 21
47 -16 47 -131 l0 -103 26 0 26 0 -4 121 c-4 144 -7 148 -104 147 l-64 -1 0
-134z"/>
<path d="M2682 784 c-28 -19 -30 -64 -4 -64 11 0 24 11 30 25 19 41 62 26 62
-22 0 -19 -7 -24 -42 -29 -56 -9 -78 -34 -78 -87 0 -55 26 -83 67 -72 15 3 45
6 66 6 l39 -2 -4 112 c-3 102 -5 112 -27 130 -28 23 -79 25 -109 3z m88 -152
c0 -61 -61 -87 -68 -29 -4 35 13 57 44 57 20 0 24 -5 24 -28z"/>
<path d="M1610 265 l0 -175 60 0 c53 0 60 2 60 20 0 16 -7 20 -35 20 l-35 0 0
155 0 155 -25 0 -25 0 0 -175z"/>
<path d="M1950 265 l0 -175 25 0 c14 0 25 5 25 10 0 6 11 3 25 -6 31 -20 70
-12 87 19 16 29 16 176 0 204 -16 28 -56 39 -88 24 -24 -10 -24 -10 -24 44 0
52 -1 55 -25 55 l-25 0 0 -175z m108 47 c17 -11 27 -130 13 -164 -12 -33 -45
-37 -61 -9 -5 11 -10 51 -10 90 0 56 3 72 18 80 21 13 24 13 40 3z"/>
<path d="M3110 415 c0 -18 5 -25 20 -25 15 0 20 7 20 25 0 18 -5 25 -20 25
-15 0 -20 -7 -20 -25z"/>
<path d="M2703 407 c-15 -6 -23 -19 -23 -34 0 -14 -6 -23 -15 -23 -8 0 -15 -9
-15 -20 0 -11 7 -20 15 -20 12 0 15 -18 15 -98 0 -109 6 -122 57 -122 37 0 46
24 13 33 -18 5 -20 14 -20 96 0 84 1 91 20 91 13 0 20 7 20 20 0 13 -7 20 -19
20 -15 0 -21 8 -23 34 -3 30 -5 32 -25 23z"/>
<path d="M1777 332 c-25 -27 -22 -52 7 -52 15 0 26 7 29 20 6 24 42 27 51 4
15 -38 7 -52 -35 -59 -55 -10 -79 -35 -79 -85 0 -67 49 -99 98 -64 12 8 22 10
22 5 0 -6 11 -11 25 -11 l25 0 0 101 c0 95 -9 135 -34 151 -22 15 -93 8 -109
-10z m93 -157 c0 -24 -6 -37 -21 -45 -29 -16 -49 -5 -49 28 0 34 16 52 47 52
20 0 23 -5 23 -35z"/>
<path d="M2185 327 c-23 -19 -28 -33 -32 -88 -9 -116 29 -171 105 -154 54 11
67 37 67 132 0 80 -1 86 -28 109 -35 30 -78 31 -112 1z m79 -23 c19 -18 22
-133 6 -165 -12 -21 -40 -25 -58 -7 -19 19 -16 153 4 172 8 9 19 16 24 16 5 0
16 -7 24 -16z"/>
<path d="M2354 328 c3 -13 6 -71 6 -130 l0 -108 25 0 25 0 0 100 c0 97 1 101
25 112 14 6 25 19 25 30 0 22 -18 23 -42 1 -17 -15 -18 -15 -18 0 0 12 -8 17
-26 17 -22 0 -25 -3 -20 -22z"/>
<path d="M2498 338 c-9 -7 -19 -23 -23 -35 -5 -20 -3 -23 19 -23 16 0 27 7 31
20 8 26 41 26 55 1 19 -37 12 -48 -34 -55 -60 -9 -78 -32 -74 -92 3 -41 7 -51
31 -64 25 -14 30 -13 57 2 17 9 30 13 30 8 0 -6 11 -10 24 -10 l25 0 -6 113
c-4 80 -10 117 -21 130 -18 20 -90 23 -114 5z m92 -157 c0 -58 -62 -83 -68
-28 -5 43 4 57 38 57 27 0 30 -3 30 -29z"/>
<path d="M2816 329 c-25 -19 -26 -25 -26 -113 0 -101 8 -118 63 -131 33 -9 84
10 97 36 11 20 14 158 4 184 -8 20 -56 45 -87 45 -13 0 -36 -9 -51 -21z m82
-21 c12 -12 17 -143 6 -172 -3 -9 -17 -16 -30 -16 -33 0 -47 39 -42 112 5 75
34 108 66 76z"/>
<path d="M2984 313 c3 -21 6 -80 6 -130 0 -92 0 -93 25 -93 25 0 25 0 25 94 0
73 4 98 16 110 8 9 20 16 25 16 5 0 9 9 9 20 0 24 -8 25 -38 4 -20 -14 -22
-14 -22 0 0 11 -9 16 -26 16 -25 0 -26 -2 -20 -37z"/>
<path d="M3110 220 l0 -130 25 0 c24 0 25 2 25 63 0 34 -3 92 -7 130 -5 56 -9
67 -24 67 -18 0 -19 -10 -19 -130z"/>
<path d="M3205 325 c-21 -20 -25 -33 -25 -87 0 -91 14 -133 49 -148 43 -17 88
-4 106 30 21 40 19 50 -9 50 -18 0 -25 -6 -28 -23 -2 -14 -11 -23 -27 -25 -28
-4 -41 12 -41 51 0 26 1 27 60 27 l60 0 0 54 c0 47 -4 57 -26 75 -37 29 -89
27 -119 -4z m83 -17 c7 -7 12 -25 12 -40 0 -25 -3 -28 -35 -28 -32 0 -35 3
-35 28 0 29 16 52 35 52 6 0 16 -5 23 -12z"/>
<path d="M3395 325 c-14 -13 -25 -33 -25 -43 0 -10 27 -44 60 -74 44 -40 59
-60 54 -72 -10 -26 -58 -17 -62 12 -5 33 -52 31 -52 -2 0 -50 72 -81 127 -54
24 12 28 19 28 58 0 40 -4 47 -45 78 -57 44 -67 60 -47 80 13 13 19 13 31 2 9
-7 16 -19 16 -26 0 -8 10 -14 25 -14 18 0 25 5 25 20 0 57 -90 81 -135 35z"/>
</g>
</svg>
