<?xml version="1.0" standalone="no"?>
<!DOCTYPE svg PUBLIC "-//W3C//DTD SVG 20010904//EN"
 "http://www.w3.org/TR/2001/REC-SVG-20010904/DTD/svg10.dtd">
<svg version="1.0" xmlns="http://www.w3.org/2000/svg"
 width="200.000000pt" height="200.000000pt" viewBox="0 0 200.000000 200.000000"
 preserveAspectRatio="xMidYMid meet">

<g transform="translate(0.000000,200.000000) scale(0.100000,-0.100000)"
fill="#000000" stroke="none">
<path d="M0 1005 l0 -315 1000 0 1000 0 0 315 0 315 -1000 0 -1000 0 0 -315z
m324 68 l25 -36 21 36 c35 59 56 47 22 -13 l-27 -49 28 -51 c22 -39 25 -50 13
-50 -9 0 -22 13 -31 29 -22 44 -31 45 -54 6 -11 -19 -27 -35 -36 -35 -11 0 -8
12 16 50 l30 49 -25 44 c-28 48 -31 57 -16 57 5 0 20 -16 34 -37z m297 18 c33
-27 16 -38 -24 -16 -84 45 -164 -45 -106 -119 33 -42 129 -34 129 11 0 7 -11
13 -25 13 -16 0 -25 6 -25 15 0 11 11 15 39 15 48 0 54 -8 40 -49 -36 -103
-209 -62 -209 49 0 29 29 76 54 89 36 17 102 13 127 -8z m174 -37 c14 -6 45
-53 45 -69 0 -3 -29 -5 -65 -5 -69 0 -79 -8 -48 -42 21 -23 34 -23 65 2 24 18
38 18 38 -1 0 -12 -56 -39 -80 -39 -31 0 -70 44 -70 78 0 60 57 98 115 76z
m95 -5 c0 -8 4 -8 14 0 24 20 69 9 83 -19 18 -36 17 -120 -2 -120 -10 0 -15
15 -17 56 -4 68 -24 90 -57 60 -16 -14 -21 -31 -21 -68 0 -34 -4 -48 -14 -48
-9 0 -14 18 -15 65 -1 36 1 70 4 75 8 14 25 13 25 -1z m265 -14 c70 -69 -31
-182 -103 -115 -30 28 -36 62 -18 98 25 49 82 57 121 17z m160 15 c7 -6 22 -6
42 2 56 21 83 -11 83 -98 0 -32 -4 -44 -15 -44 -11 0 -15 13 -15 54 0 62 -16
84 -49 66 -17 -9 -21 -20 -21 -65 0 -42 -3 -55 -15 -55 -11 0 -15 13 -15 53 0
48 -12 77 -31 77 -22 0 -39 -35 -39 -81 0 -37 -4 -49 -15 -49 -12 0 -15 14
-15 68 0 38 2 71 4 73 10 9 90 8 101 -1z m280 -15 c42 -41 33 -54 -37 -57 -69
-3 -83 -18 -43 -44 25 -16 27 -16 55 4 36 27 55 8 20 -20 -58 -47 -141 8 -125
83 13 59 86 79 130 34z m123 6 c3 -10 -2 -12 -21 -7 -42 10 -42 -13 -1 -48 38
-33 38 -33 21 -60 -10 -14 -24 -26 -33 -26 -24 0 -55 20 -49 31 4 5 13 5 23 0
21 -10 42 -4 42 13 0 7 -13 22 -30 34 -32 24 -38 50 -18 70 16 16 60 11 66 -7z"/>
<path d="M724 1023 c-17 -17 -16 -18 25 -21 51 -4 63 4 37 24 -26 19 -41 18
-62 -3z"/>
<path d="M1072 1024 c-31 -22 -30 -69 3 -90 23 -15 27 -15 50 0 30 20 34 65 7
89 -23 21 -32 21 -60 1z"/>
<path d="M1505 1020 c-18 -20 -17 -20 33 -20 56 0 62 5 35 26 -25 19 -47 17
-68 -6z"/>
</g>
</svg>
